# xmcd
#
# Track frame offsets:
#	150
#	15707
#	29952
#	43530
#	62585
#	77512
#	91695
#	108682
#	118950
#	134490
#	150725
#	168785
#	190035
#	205005
#	218172
#	231177
#	243247
#	256685
#
# Disc length: 3623 seconds
#
# Revision: 0
# Processed by: cddbd v1.4PL0 Copyright (c) Steve Scherf et al.
# Submitted via: EasyCDDAExtractor 4.6.9.1
#
DISCID=ed0e2512
DTITLE=Carl Sonny Leyland - Boogie and Blues by Carl Sonny Leyland
DYEAR=1995
DGENRE=Blues
TTITLE0=Eighty-eighter on Decatur
TTITLE1=The olde English blues
TTITLE2=Down the road apiece (vocal)
TTITLE3=Suitcase blues
TTITLE4=Walkin' and squalkin'
TTITLE5=Superstitious blues (vocal)
TTITLE6=Barrelhouse drag
TTITLE7=Yancey's bugle call
TTITLE8=I got a gal (vocal)
TTITLE9=Mr. Freddy blues
TTITLE10=Hammerhead
TTITLE11=Hoodle addle (vocal)
TTITLE12=So spaketh the blues
TTITLE13=Shout for Albert
TTITLE14=E and N Blues
TTITLE15=Atomic bounce
TTITLE16=Southside stuff
TTITLE17=House of blue lights
EXTD=
EXTT0=
EXTT1=
EXTT2=
EXTT3=
EXTT4=
EXTT5=
EXTT6=
EXTT7=
EXTT8=
EXTT9=
EXTT10=
EXTT11=
EXTT12=
EXTT13=
EXTT14=
EXTT15=
EXTT16=
EXTT17=
PLAYORDER=
